<?xml version="1.0" encoding="UTF-8"?>
<!DOCTYPE svg PUBLIC "-//W3C//DTD SVG 1.1//EN" "http://www.w3.org/Graphics/SVG/1.1/DTD/svg11.dtd">
<svg xmlns="http://www.w3.org/2000/svg" version="1.1" width="254px" height="254px" style="shape-rendering:geometricPrecision; text-rendering:geometricPrecision; image-rendering:optimizeQuality; fill-rule:evenodd; clip-rule:evenodd" xmlns:xlink="http://www.w3.org/1999/xlink">
<g><path style="opacity:1" fill="#fefefe" d="M -0.5,-0.5 C 84.1667,-0.5 168.833,-0.5 253.5,-0.5C 253.5,84.1667 253.5,168.833 253.5,253.5C 168.833,253.5 84.1667,253.5 -0.5,253.5C -0.5,168.833 -0.5,84.1667 -0.5,-0.5 Z"/></g>
<g><path style="opacity:1" fill="#1b1b1b" d="M 111.5,29.5 C 162.55,27.4418 198.717,49.4418 220,95.5C 233.903,137.892 225.403,175.059 194.5,207C 161.574,235.372 124.574,242.038 83.5,227C 43.6221,207.767 22.9555,175.934 21.5,131.5C 23.6194,87.4314 44.6194,55.9314 84.5,37C 93.4884,33.9409 102.488,31.4409 111.5,29.5 Z"/></g>
<g><path style="opacity:1" fill="#fcfcfc" d="M 112.5,34.5 C 162.963,32.7969 197.796,55.1303 217,101.5C 227.469,140.794 218.636,174.961 190.5,204C 159.907,230.072 125.574,236.405 87.5,223C 43.5286,202.254 23.362,167.42 27,118.5C 33.6445,83.1866 53.1445,57.6866 85.5,42C 94.4175,38.6909 103.417,36.1909 112.5,34.5 Z"/></g>
<g><path style="opacity:1" fill="#1a1a1a" d="M 91.5,64.5 C 94.8333,64.5 98.1667,64.5 101.5,64.5C 101.5,65.8333 101.5,67.1667 101.5,68.5C 89.1816,66.3217 84.6816,71.3217 88,83.5C 89.0675,87.5352 90.2342,91.5352 91.5,95.5C 94.0609,97.6071 95.8942,100.274 97,103.5C 104.764,113.03 112.097,112.697 119,102.5C 126.242,92.5322 128.576,81.5322 126,69.5C 122.27,68.5399 118.437,68.2065 114.5,68.5C 114.5,67.1667 114.5,65.8333 114.5,64.5C 120.279,63.708 125.446,65.0414 130,68.5C 131.223,79.7394 130.223,90.7394 127,101.5C 125.248,104.672 123.248,107.672 121,110.5C 116.55,113.45 112.717,116.95 109.5,121C 111.453,130.27 116.453,137.27 124.5,142C 136.19,142.667 143.857,137.334 147.5,126C 143.392,122.525 142.559,118.359 145,113.5C 153.756,109.277 158.089,111.944 158,121.5C 156.202,123.972 153.868,125.639 151,126.5C 147.456,137.379 140.122,144.046 129,146.5C 122.124,145.304 116.457,141.971 112,136.5C 109.144,131.621 106.977,126.454 105.5,121C 101.174,116.401 96.6741,111.901 92,107.5C 85.0708,95.4246 82.7375,82.4246 85,68.5C 86.7918,66.372 88.9584,65.0387 91.5,64.5 Z"/></g>
<g><path style="opacity:1" fill="#171717" d="M 145.5,80.5 C 158.303,79.141 164.47,84.8076 164,97.5C 160.645,105.961 154.479,109.128 145.5,107C 138.33,102.841 135.83,96.6739 138,88.5C 140.028,85.3078 142.528,82.6411 145.5,80.5 Z"/></g>
<g><path style="opacity:1" fill="#ebebeb" d="M 148.5,87.5 C 149.833,87.5 151.167,87.5 152.5,87.5C 152.5,89.1667 152.5,90.8333 152.5,92.5C 154.167,92.5 155.833,92.5 157.5,92.5C 157.5,93.5 157.5,94.5 157.5,95.5C 155.833,95.5 154.167,95.5 152.5,95.5C 152.5,97.1667 152.5,98.8333 152.5,100.5C 151.167,100.5 149.833,100.5 148.5,100.5C 148.5,98.8333 148.5,97.1667 148.5,95.5C 147.167,95.5 145.833,95.5 144.5,95.5C 144.5,94.5 144.5,93.5 144.5,92.5C 145.833,92.5 147.167,92.5 148.5,92.5C 148.5,90.8333 148.5,89.1667 148.5,87.5 Z"/></g>
<g><path style="opacity:1" fill="#d0d0d0" d="M 148.5,113.5 C 155.821,114.319 157.154,117.486 152.5,123C 145.075,122.484 143.742,119.318 148.5,113.5 Z"/></g>
<g><path style="opacity:1" fill="#1f1f1f" d="M 149.5,115.5 C 153.35,115.701 154.35,117.534 152.5,121C 147.722,121.073 146.722,119.24 149.5,115.5 Z"/></g>
<g><path style="opacity:1" fill="#8a8a8a" d="M 82.5,158.5 C 83.8174,164.678 83.8174,171.012 82.5,177.5C 81.8933,177.376 81.56,177.043 81.5,176.5C 82.4896,170.69 82.8229,164.69 82.5,158.5 Z"/></g>
<g><path style="opacity:1" fill="#727272" d="M 89.5,158.5 C 89.5,164.5 89.5,170.5 89.5,176.5C 93.1667,176.5 96.8333,176.5 100.5,176.5C 96.7016,177.483 92.7016,177.817 88.5,177.5C 88.1765,170.978 88.5098,164.645 89.5,158.5 Z"/></g>
<g><path style="opacity:1" fill="#1e1e1e" d="M 89.5,158.5 C 93.226,158.177 96.8927,158.511 100.5,159.5C 97.2317,160.487 93.8984,160.82 90.5,160.5C 90.5,162.5 90.5,164.5 90.5,166.5C 93.5719,166.183 96.5719,166.516 99.5,167.5C 96.9135,168.48 94.2469,168.813 91.5,168.5C 90.5318,170.607 90.1984,172.941 90.5,175.5C 93.8333,175.5 97.1667,175.5 100.5,175.5C 100.5,175.833 100.5,176.167 100.5,176.5C 96.8333,176.5 93.1667,176.5 89.5,176.5C 89.5,170.5 89.5,164.5 89.5,158.5 Z"/></g>
<g><path style="opacity:1" fill="#1e1e1e" d="M 105.5,158.5 C 116.324,156.612 121.157,160.946 120,171.5C 119.535,172.931 118.701,174.097 117.5,175C 113.637,176.354 109.637,176.854 105.5,176.5C 105.5,170.5 105.5,164.5 105.5,158.5 Z"/></g>
<g><path style="opacity:1" fill="#1c1c1c" d="M 125.5,158.5 C 126.816,161.087 127.483,164.087 127.5,167.5C 127.167,170.5 126.833,173.5 126.5,176.5C 125.504,170.537 125.171,164.537 125.5,158.5 Z"/></g>
<g><path style="opacity:1" fill="#222222" d="M 183.5,175.5 C 180.375,176.479 177.042,176.813 173.5,176.5C 173.171,170.463 173.504,164.463 174.5,158.5C 175.495,164.128 175.829,169.794 175.5,175.5C 178.167,175.5 180.833,175.5 183.5,175.5 Z"/></g>
<g><path style="opacity:1" fill="#f8f8f8" d="M 107.5,160.5 C 118.818,160.081 121.485,164.581 115.5,174C 112.986,175.252 110.32,175.752 107.5,175.5C 107.5,170.5 107.5,165.5 107.5,160.5 Z"/></g>
<g><path style="opacity:1" fill="#282828" d="M 137.5,158.5 C 142.797,157.308 146.797,158.974 149.5,163.5C 149.167,163.833 148.833,164.167 148.5,164.5C 144.301,159.684 139.801,159.351 135,163.5C 132.733,173.229 136.233,176.729 145.5,174C 149.207,169.38 149.873,169.713 147.5,175C 141.789,178.965 136.955,178.132 133,172.5C 131.309,166.61 132.809,161.944 137.5,158.5 Z"/></g>
<g><path style="opacity:1" fill="#222222" d="M 82.5,158.5 C 82.8229,164.69 82.4896,170.69 81.5,176.5C 81.6659,171.489 81.4993,166.489 81,161.5C 80.2828,162.044 79.7828,162.711 79.5,163.5C 78.2298,167.638 76.5632,171.638 74.5,175.5C 73.675,176.386 72.675,176.719 71.5,176.5C 69.9705,171.75 68.1372,167.084 66,162.5C 65.8283,167.202 65.3283,171.868 64.5,176.5C 63.5041,170.537 63.1707,164.537 63.5,158.5C 64.675,158.281 65.675,158.614 66.5,159.5C 68.57,164.209 70.7366,168.876 73,173.5C 75.6427,169.08 77.8094,164.414 79.5,159.5C 80.325,158.614 81.325,158.281 82.5,158.5 Z"/></g>
<g><path style="opacity:1" fill="#252525" d="M 159.5,158.5 C 160.675,158.281 161.675,158.614 162.5,159.5C 164.833,164.833 167.167,170.167 169.5,175.5C 169.167,175.833 168.833,176.167 168.5,176.5C 166.982,173.559 164.482,172.226 161,172.5C 157.173,171.73 154.506,173.063 153,176.5C 154.276,170.261 156.443,164.261 159.5,158.5 Z"/></g>
<g><path style="opacity:1" fill="#efefef" d="M 160.5,160.5 C 162.352,163.551 163.686,166.884 164.5,170.5C 161.753,170.813 159.086,170.48 156.5,169.5C 157.84,166.471 159.173,163.471 160.5,160.5 Z"/></g>
<g><path style="opacity:1" fill="#929292" d="M 81.5,176.5 C 80.8333,172.167 80.1667,167.833 79.5,163.5C 79.7828,162.711 80.2828,162.044 81,161.5C 81.4993,166.489 81.6659,171.489 81.5,176.5 Z"/></g>
<g><path style="opacity:1" fill="#bababa" d="M 91.5,168.5 C 91.5,170.5 91.5,172.5 91.5,174.5C 94.7131,174.19 97.7131,174.523 100.5,175.5C 97.1667,175.5 93.8333,175.5 90.5,175.5C 90.1984,172.941 90.5318,170.607 91.5,168.5 Z"/></g>
<g><path style="opacity:1" fill="#8a8a8a" d="M 183.5,175.5 C 184.043,175.56 184.376,175.893 184.5,176.5C 180.685,177.808 177.019,177.808 173.5,176.5C 177.042,176.813 180.375,176.479 183.5,175.5 Z"/></g>
<g><path style="opacity:1" fill="#4d4d4d" d="M 126.5,185.5 C 125.833,184.167 125.167,184.167 124.5,185.5C 116.61,184.765 116.776,184.098 125,183.5C 127.167,183.833 129.333,184.167 131.5,184.5C 129.955,185.452 128.288,185.785 126.5,185.5 Z"/></g>
<g><path style="opacity:1" fill="#535353" d="M 178.5,185.5 C 177.833,184.167 177.167,184.167 176.5,185.5C 174.396,185.799 172.396,185.466 170.5,184.5C 175.167,183.167 179.833,183.167 184.5,184.5C 182.604,185.466 180.604,185.799 178.5,185.5 Z"/></g>
<g><path style="opacity:1" fill="#595959" d="M 85.5,184.5 C 84.1667,189.833 84.1667,195.167 85.5,200.5C 85.44,201.043 85.1067,201.376 84.5,201.5C 83.1667,195.5 83.1667,189.5 84.5,183.5C 85.1067,183.624 85.44,183.957 85.5,184.5 Z"/></g>
<g><path style="opacity:1" fill="#101110" d="M 85.5,184.5 C 85.5,186.833 85.5,189.167 85.5,191.5C 88.8333,191.5 92.1667,191.5 95.5,191.5C 95.5,189.167 95.5,186.833 95.5,184.5C 96.8333,189.833 96.8333,195.167 95.5,200.5C 95.5,197.833 95.5,195.167 95.5,192.5C 92.1667,192.5 88.8333,192.5 85.5,192.5C 85.5,195.167 85.5,197.833 85.5,200.5C 84.1667,195.167 84.1667,189.833 85.5,184.5 Z"/></g>
<g><path style="opacity:1" fill="#454545" d="M 95.5,184.5 C 95.56,183.957 95.8933,183.624 96.5,183.5C 97.8333,189.5 97.8333,195.5 96.5,201.5C 95.8933,201.376 95.56,201.043 95.5,200.5C 96.8333,195.167 96.8333,189.833 95.5,184.5 Z"/></g>
<g><path style="opacity:1" fill="#121212" d="M 126.5,185.5 C 125.833,190.5 125.167,195.5 124.5,200.5C 124.5,195.5 124.5,190.5 124.5,185.5C 125.167,184.167 125.833,184.167 126.5,185.5 Z"/></g>
<g><path style="opacity:1" fill="#272727" d="M 135.5,183.5 C 138.518,183.335 141.518,183.502 144.5,184C 147.95,186.158 148.283,188.658 145.5,191.5C 147.395,193.867 147.895,196.534 147,199.5C 143.27,200.46 139.437,200.793 135.5,200.5C 135.5,194.833 135.5,189.167 135.5,183.5 Z"/></g>
<g><path style="opacity:1" fill="#676767" d="M 126.5,185.5 C 126.828,190.875 126.495,196.208 125.5,201.5C 124.893,201.376 124.56,201.043 124.5,200.5C 125.167,195.5 125.833,190.5 126.5,185.5 Z"/></g>
<g><path style="opacity:1" fill="#f0f0f0" d="M 137.5,185.5 C 139.857,185.337 142.19,185.503 144.5,186C 145.86,187.938 145.527,189.604 143.5,191C 141.527,191.495 139.527,191.662 137.5,191.5C 137.5,189.5 137.5,187.5 137.5,185.5 Z"/></g>
<g><path style="opacity:1" fill="#202020" d="M 178.5,185.5 C 177.833,205.5 177.167,205.5 176.5,185.5C 177.167,184.167 177.833,184.167 178.5,185.5 Z"/></g>
<g><path style="opacity:1" fill="#e3e3e3" d="M 137.5,192.5 C 141.316,191.789 144.316,192.955 146.5,196C 146.18,197.653 145.18,198.653 143.5,199C 141.527,199.495 139.527,199.662 137.5,199.5C 137.5,197.167 137.5,194.833 137.5,192.5 Z"/></g>
<g><path style="opacity:1" fill="#2a2a2a" d="M 156.5,183.5 C 166.43,183.576 169.93,188.243 167,197.5C 161.694,202.979 156.694,202.645 152,196.5C 150.379,190.923 151.879,186.589 156.5,183.5 Z"/></g>
<g><path style="opacity:1" fill="#f6f6f6" d="M 156.5,185.5 C 166.311,185.139 168.977,189.306 164.5,198C 155.682,200.852 152.182,197.685 154,188.5C 155.045,187.627 155.878,186.627 156.5,185.5 Z"/></g>
<g><path style="opacity:1" fill="#272727" d="M 107.5,183.5 C 108.5,183.5 109.5,183.5 110.5,183.5C 112.66,189.143 114.493,194.81 116,200.5C 115.044,199.421 114.211,198.255 113.5,197C 110.183,196.502 106.85,196.335 103.5,196.5C 103.579,197.93 103.246,199.264 102.5,200.5C 101.833,201.833 101.167,201.833 100.5,200.5C 103.122,194.926 105.456,189.259 107.5,183.5 Z"/></g>
<g><path style="opacity:1" fill="#f3f3f3" d="M 112.5,194.5 C 109.941,194.802 107.607,194.468 105.5,193.5C 108.182,184.325 110.516,184.658 112.5,194.5 Z"/></g>
<g><path style="opacity:1" fill="#7e7e7e" d="M 105.5,193.5 C 107.607,194.468 109.941,194.802 112.5,194.5C 109.976,195.8 107.309,195.8 104.5,194.5C 104.624,193.893 104.957,193.56 105.5,193.5 Z"/></g>
<g><path style="opacity:1" fill="#292929" d="M 69.5,183.5 C 74.2536,182.543 77.587,184.21 79.5,188.5C 79.1667,188.833 78.8333,189.167 78.5,189.5C 74.7227,184.604 70.5561,184.271 66,188.5C 64.2216,197.726 67.7216,200.893 76.5,198C 77.0465,197.075 77.7132,196.242 78.5,195.5C 78.8165,198.087 77.4832,199.92 74.5,201C 66.0229,201.181 62.5229,197.014 64,188.5C 65.7297,186.598 67.563,184.931 69.5,183.5 Z"/></g>
</svg>
